<svg width="421" height="45" viewBox="0 0 421 45" fill="none" xmlns="http://www.w3.org/2000/svg">
<path fill-rule="evenodd" clip-rule="evenodd" d="M0 9.2796V0H36.6988V9.2796H23.8451V45H12.8548V9.2796H0ZM32.5996 45L50.8822 0H61.1008L79.198 45H67.5028L64.1169 36.1641H47.251L44.0496 45H32.5996ZM61.2235 27.57L55.8066 12.2242L50.2671 27.57H61.2235ZM75.7742 9.2796V0H112.474V9.2796H99.6203V45H88.629V9.2796H75.7742ZM114.659 0V9.2796H127.514V45H138.504V9.2796H151.358V0H114.659ZM158 45V0H187.302V9.15195H168.157V17.6697H186.255V26.377H168.157V35.7204H188.41V45H158ZM203.204 26.0949C203.204 30.8884 199.416 34.7727 194.743 34.7727H194.231V45H196.918C198.202 44.9356 203.675 44.5111 208.189 39.8864C212.572 35.3986 213.085 29.9945 213.174 28.6364C213.34 25.7385 213.507 22.8408 213.673 19.9432C213.839 17.0455 214.006 14.1479 214.172 11.25H223.145V45H234.112V0H203.204V26.0949ZM240 45V0H270.834V9.15195H250.688V17.6697H269.733V26.377H250.688V35.7204H272V45H240Z" fill="white"/>
<path fill-rule="evenodd" clip-rule="evenodd" d="M319.305 0.289432C319.101 3.9017 318.271 9.95523 314.809 16.3636C312.883 19.9289 310.671 22.6237 308.809 24.5455C310.643 27.9554 312.477 31.3654 314.311 34.7754C316.144 38.1819 317.976 41.5884 319.809 44.9949H308.092C306.545 42.098 304.997 39.2011 303.45 36.3043C301.903 33.4074 300.356 30.5105 298.809 27.6136H290.809V45C288.975 44.999 287.142 44.9982 285.309 44.9974C283.475 44.9967 281.642 44.9959 279.809 44.9949V0H290.809V17.3864H300.809C302.371 15.3481 304.353 12.2789 305.809 8.18182C306.88 5.16784 307.367 2.4392 307.589 0.289432H319.305ZM352.22 31.8834C353.239 30.7196 354.031 29.3256 354.597 27.7015C355.164 26.0764 355.447 24.3019 355.447 22.3761C355.447 20.5311 355.164 18.8058 354.597 17.2011C354.031 15.5975 353.247 14.2219 352.247 13.0796C351.247 11.9361 350.039 11.0341 348.624 10.3724C347.208 9.70967 345.651 9.37933 343.952 9.37933C342.254 9.37933 340.706 9.70967 339.309 10.3724C337.912 11.0341 336.705 11.9361 335.686 13.0796C334.667 14.2219 333.883 15.5975 333.336 17.2011C332.788 18.8058 332.515 20.5311 332.515 22.3761C332.515 24.3019 332.798 26.0764 333.364 27.7015C333.93 29.3256 334.713 30.7196 335.714 31.8834C336.714 33.0473 337.912 33.9585 339.309 34.6213C340.706 35.283 342.254 35.6133 343.952 35.6133C345.651 35.6133 347.199 35.283 348.596 34.6213C349.992 33.9585 351.2 33.0473 352.22 31.8834ZM352.672 1.56972C355.352 2.61449 357.664 4.10219 359.609 6.03178C361.552 7.96241 363.071 10.3062 364.166 13.0602C365.261 15.8151 365.808 18.9012 365.808 22.3195C365.808 25.6969 365.261 28.785 364.166 31.5779C363.071 34.3739 361.552 36.7659 359.609 38.757C357.664 40.7481 355.352 42.2861 352.672 43.3708C349.992 44.4576 347.085 45 343.952 45C340.819 45 337.922 44.4576 335.261 43.3708C332.599 42.2861 330.297 40.7481 328.353 38.757C326.409 36.7659 324.889 34.3739 323.795 31.5779C322.7 28.785 322.153 25.6969 322.153 22.3195C322.153 18.9012 322.7 15.8151 323.795 13.0602C324.889 10.3062 326.409 7.96241 328.353 6.03178C330.297 4.10219 332.599 2.61449 335.261 1.56972C337.922 0.522898 340.819 0 343.952 0C347.085 0 349.992 0.522898 352.672 1.56972ZM403.478 9.24088C405.319 6.16058 407.159 3.08029 409 0H421V45H410V16.3636C408.49 19.1091 406.98 21.8549 405.47 24.6006C403.98 27.3096 402.49 30.0185 401 32.7273H394C392.499 29.828 390.999 26.929 389.498 24.03C387.999 21.1337 386.499 18.2375 385 15.3409V45H374V0H387C388.834 3.06862 390.667 6.13724 392.501 9.20586C394.334 12.2736 396.167 15.3413 398 18.4091C399.826 15.353 401.652 12.2969 403.478 9.24088Z" fill="#E74625"/>
</svg>
