<svg width="994" height="1086" viewBox="0 0 994 1086" fill="none" xmlns="http://www.w3.org/2000/svg">
<path fill-rule="evenodd" clip-rule="evenodd" d="M564.5 1013C801.706 1013 994 820.706 994 583.5C994 346.294 801.706 154 564.5 154C327.294 154 135 346.294 135 583.5C135 820.706 327.294 1013 564.5 1013Z" fill="url(#paint0_linear)"/>
<path d="M880.172 595.37L532.952 784L456.213 334.982C455.405 330.275 456.922 325.467 460.285 322.08L776.959 3.86033C780.363 0.44357 785.363 -0.829736 789.983 0.543589C794.603 1.91691 798.1 5.71591 799.091 10.4393L910.603 528.685C916.357 555.214 903.966 582.368 880.172 595.37V595.37Z" fill="#004ECE"/>
<path d="M873.186 597.78L525.963 785L449.209 339.288C448.41 334.617 449.929 329.848 453.281 326.503L778.868 1.83963C780.496 0.212758 782.881 -0.394178 785.087 0.257168C787.292 0.908515 788.967 2.71413 789.452 4.96494L903.618 531.608C909.339 557.992 896.927 584.981 873.186 597.78V597.78Z" fill="#0079BD"/>
<path d="M450.75 936.579L154 1077.07V1081.66C154 1083.14 154.754 1084.52 156.001 1085.31C157.249 1086.11 158.817 1086.22 160.162 1085.6L414.885 969.12C441.519 956.938 466.384 941.214 488.802 922.374L895.875 580.364C897.153 579.289 897.921 577.729 897.994 576.063C898.067 574.396 897.438 572.775 896.259 571.593L886.661 562L450.75 936.579Z" fill="#004ECE"/>
<path d="M410.944 959.878L155.869 1078.82C154.948 1079.24 153.86 1078.91 153.317 1078.06C152.774 1077.2 152.943 1076.08 153.713 1075.42L486.515 795.761C497.852 786.21 509.994 777.659 522.804 770.204L883.003 561.177C883.597 560.836 884.352 561 884.75 561.557C885.149 562.114 885.062 562.882 884.549 563.335L487.053 910.341C464.131 930.348 438.51 947.024 410.944 959.878V959.878Z" fill="#9DC2FF"/>
<path d="M620.321 789.976L305 952L485.386 801.346L849 591L620.321 789.976Z" fill="#305BAD"/>
<path d="M881 516.536L529.955 731L466 348.942L778.671 45L881 516.536Z" fill="#9DC2FF"/>
<defs>
<linearGradient id="paint0_linear" x1="1037.8" y1="460.659" x2="489.433" y2="-142.835" gradientUnits="userSpaceOnUse">
<stop stop-color="#1B71FF" stop-opacity="0.01"/>
<stop offset="1" stop-color="#004AC4"/>
</linearGradient>
</defs>
</svg>
