<svg width="994" height="1086" viewBox="0 0 994 1086" fill="none" xmlns="http://www.w3.org/2000/svg">
<path fill-rule="evenodd" clip-rule="evenodd" d="M564.5 1013C801.706 1013 994 820.706 994 583.5C994 346.294 801.706 154 564.5 154C327.294 154 135 346.294 135 583.5C135 820.706 327.294 1013 564.5 1013Z" fill="url(#paint0_linear)"/>
<path d="M880.172 595.37L532.952 784L456.213 334.982C455.405 330.275 456.922 325.467 460.285 322.08L776.959 3.86033C780.363 0.44357 785.363 -0.829736 789.983 0.543589C794.603 1.91691 798.1 5.71591 799.091 10.4393L910.603 528.685C916.357 555.214 903.966 582.368 880.172 595.37Z" fill="#004ECE"/>
<path d="M873.186 597.78L525.963 785L449.209 339.288C448.41 334.617 449.929 329.848 453.281 326.503L778.868 1.83963C780.496 0.212758 782.881 -0.394178 785.087 0.257168C787.292 0.908515 788.967 2.71413 789.452 4.96494L903.618 531.608C909.339 557.992 896.927 584.981 873.186 597.78Z" fill="#0079BD"/>
<path d="M450.75 936.579L154 1077.07V1081.66C154 1083.14 154.754 1084.52 156.001 1085.31C157.249 1086.11 158.817 1086.22 160.162 1085.6L414.885 969.12C441.519 956.938 466.384 941.214 488.802 922.374L895.875 580.364C897.153 579.289 897.921 577.729 897.994 576.063C898.067 574.396 897.438 572.775 896.259 571.593L886.661 562L450.75 936.579Z" fill="#004ECE"/>
<path d="M410.944 959.878L155.869 1078.82C154.948 1079.24 153.86 1078.91 153.317 1078.06C152.774 1077.2 152.943 1076.08 153.713 1075.42L486.515 795.761C497.852 786.21 509.994 777.659 522.804 770.204L883.003 561.177C883.597 560.836 884.352 561 884.75 561.557C885.149 562.114 885.062 562.882 884.549 563.335L487.053 910.341C464.131 930.348 438.51 947.024 410.944 959.878Z" fill="#9DC2FF"/>
<path d="M620.321 789.976L305 952L485.386 801.346L849 591L620.321 789.976Z" fill="#305BAD"/>
<path d="M881 516.536L529.955 731L466 348.942L778.671 45L881 516.536Z" fill="#9DC2FF"/>
<path d="M68 453C105.555 453 136 422.555 136 385C136 347.445 105.555 317 68 317C30.4446 317 0 347.445 0 385C0 422.555 30.4446 453 68 453Z" fill="url(#paint1_linear)"/>
<path d="M699 292C726.062 292 748 270.062 748 243C748 215.938 726.062 194 699 194C671.938 194 650 215.938 650 243C650 270.062 671.938 292 699 292Z" fill="url(#paint2_linear)"/>
<path d="M622.5 445C650.943 445 674 421.943 674 393.5C674 365.057 650.943 342 622.5 342C594.057 342 571 365.057 571 393.5C571 421.943 594.057 445 622.5 445Z" fill="url(#paint3_linear)"/>
<path d="M542 763C589.496 763 628 724.496 628 677C628 629.504 589.496 591 542 591C494.504 591 456 629.504 456 677C456 724.496 494.504 763 542 763Z" fill="url(#paint4_linear)"/>
<path d="M346.5 287C369.42 287 388 268.42 388 245.5C388 222.58 369.42 204 346.5 204C323.58 204 305 222.58 305 245.5C305 268.42 323.58 287 346.5 287Z" fill="url(#paint5_linear)"/>
<path d="M353 375C367.359 375 379 363.359 379 349C379 334.641 367.359 323 353 323C338.641 323 327 334.641 327 349C327 363.359 338.641 375 353 375Z" fill="url(#paint6_linear)"/>
<path d="M266.5 319C273.956 319 280 312.956 280 305.5C280 298.044 273.956 292 266.5 292C259.044 292 253 298.044 253 305.5C253 312.956 259.044 319 266.5 319Z" fill="url(#paint7_linear)"/>
<path d="M608 244C619.046 244 628 235.046 628 224C628 212.954 619.046 204 608 204C596.954 204 588 212.954 588 224C588 235.046 596.954 244 608 244Z" fill="url(#paint8_linear)"/>
<path d="M285.5 511C288.538 511 291 508.538 291 505.5C291 502.462 288.538 500 285.5 500C282.462 500 280 502.462 280 505.5C280 508.538 282.462 511 285.5 511Z" fill="#1B71FF"/>
<path d="M342.5 563C344.985 563 347 560.985 347 558.5C347 556.015 344.985 554 342.5 554C340.015 554 338 556.015 338 558.5C338 560.985 340.015 563 342.5 563Z" fill="#1B71FF"/>
<path d="M171 541C174.314 541 177 538.314 177 535C177 531.686 174.314 529 171 529C167.686 529 165 531.686 165 535C165 538.314 167.686 541 171 541Z" fill="#1B71FF"/>
<path d="M205.5 563C207.985 563 210 560.985 210 558.5C210 556.015 207.985 554 205.5 554C203.015 554 201 556.015 201 558.5C201 560.985 203.015 563 205.5 563Z" fill="#1B71FF"/>
<path d="M234.5 544C235.328 544 236 543.328 236 542.5C236 541.672 235.328 541 234.5 541C233.672 541 233 541.672 233 542.5C233 543.328 233.672 544 234.5 544Z" fill="#1D80B7"/>
<path d="M278.5 644C285.404 644 291 638.404 291 631.5C291 624.596 285.404 619 278.5 619C271.596 619 266 624.596 266 631.5C266 638.404 271.596 644 278.5 644Z" fill="#1B71FF"/>
<path d="M411.5 615C413.433 615 415 613.433 415 611.5C415 609.567 413.433 608 411.5 608C409.567 608 408 609.567 408 611.5C408 613.433 409.567 615 411.5 615Z" fill="#1B71FF"/>
<path d="M408.5 211C413.194 211 417 207.194 417 202.5C417 197.806 413.194 194 408.5 194C403.806 194 400 197.806 400 202.5C400 207.194 403.806 211 408.5 211Z" fill="url(#paint9_linear)"/>
<path d="M460 527C493.137 527 520 500.137 520 467C520 433.863 493.137 407 460 407C426.863 407 400 433.863 400 467C400 500.137 426.863 527 460 527Z" fill="url(#paint10_linear)"/>
<path d="M522.5 325C553.704 325 579 299.704 579 268.5C579 237.296 553.704 212 522.5 212C491.296 212 466 237.296 466 268.5C466 299.704 491.296 325 522.5 325Z" fill="url(#paint11_linear)"/>
<path d="M815.979 250C777.097 250.008 742.324 274.207 728.806 310.666C715.287 347.125 725.878 388.146 755.355 413.504C784.832 438.861 826.973 443.202 861 424.385L823.859 250.355C821.289 250.071 818.649 250 815.979 250Z" fill="url(#paint12_linear)"/>
<path d="M765.827 29C744.26 28.9931 725.139 42.7814 718.456 63.1597C711.772 83.538 719.044 105.876 736.472 118.501C753.901 131.126 777.525 131.17 795 118.609L776.002 30.0324C772.655 29.3436 769.245 28.9976 765.827 29Z" fill="url(#paint13_linear)"/>
<defs>
<linearGradient id="paint0_linear" x1="1037.8" y1="460.659" x2="489.433" y2="-142.835" gradientUnits="userSpaceOnUse">
<stop stop-color="#1B71FF" stop-opacity="0.01"/>
<stop offset="1" stop-color="#004AC4"/>
</linearGradient>
<linearGradient id="paint1_linear" x1="0" y1="317" x2="0" y2="453" gradientUnits="userSpaceOnUse">
<stop stop-color="#1B71FF"/>
<stop offset="1" stop-color="#1B71FF" stop-opacity="0.0987319"/>
</linearGradient>
<linearGradient id="paint2_linear" x1="650" y1="194" x2="650" y2="292" gradientUnits="userSpaceOnUse">
<stop stop-color="#1B71FF"/>
<stop offset="1" stop-color="#1B71FF" stop-opacity="0.0987319"/>
</linearGradient>
<linearGradient id="paint3_linear" x1="571" y1="342" x2="571" y2="445" gradientUnits="userSpaceOnUse">
<stop stop-color="#1B71FF"/>
<stop offset="1" stop-color="#1B71FF" stop-opacity="0.0987319"/>
</linearGradient>
<linearGradient id="paint4_linear" x1="456" y1="591" x2="456" y2="763" gradientUnits="userSpaceOnUse">
<stop stop-color="#1B71FF"/>
<stop offset="1" stop-color="#1B71FF" stop-opacity="0.0987319"/>
</linearGradient>
<linearGradient id="paint5_linear" x1="305" y1="204" x2="305" y2="287" gradientUnits="userSpaceOnUse">
<stop stop-color="#1B71FF"/>
<stop offset="1" stop-color="#1B71FF" stop-opacity="0.0987319"/>
</linearGradient>
<linearGradient id="paint6_linear" x1="327" y1="323" x2="327" y2="375" gradientUnits="userSpaceOnUse">
<stop stop-color="#1B71FF"/>
<stop offset="1" stop-color="#1B71FF" stop-opacity="0.0987319"/>
</linearGradient>
<linearGradient id="paint7_linear" x1="253" y1="292" x2="253" y2="319" gradientUnits="userSpaceOnUse">
<stop stop-color="#1B71FF"/>
<stop offset="1" stop-color="#1B71FF" stop-opacity="0.0987319"/>
</linearGradient>
<linearGradient id="paint8_linear" x1="588" y1="204" x2="588" y2="244" gradientUnits="userSpaceOnUse">
<stop stop-color="#1B71FF"/>
<stop offset="1" stop-color="#1B71FF" stop-opacity="0.0987319"/>
</linearGradient>
<linearGradient id="paint9_linear" x1="400" y1="194" x2="400" y2="211" gradientUnits="userSpaceOnUse">
<stop stop-color="#1B71FF"/>
<stop offset="1" stop-color="#1B71FF" stop-opacity="0.0987319"/>
</linearGradient>
<linearGradient id="paint10_linear" x1="400" y1="407" x2="400" y2="527" gradientUnits="userSpaceOnUse">
<stop stop-color="#1B71FF"/>
<stop offset="1" stop-color="#1B71FF" stop-opacity="0.0987319"/>
</linearGradient>
<linearGradient id="paint11_linear" x1="466" y1="212" x2="466" y2="325" gradientUnits="userSpaceOnUse">
<stop stop-color="#1B71FF"/>
<stop offset="1" stop-color="#1B71FF" stop-opacity="0.0987319"/>
</linearGradient>
<linearGradient id="paint12_linear" x1="723" y1="250" x2="723" y2="436" gradientUnits="userSpaceOnUse">
<stop stop-color="#1B71FF"/>
<stop offset="1" stop-color="#1B71FF" stop-opacity="0.0987319"/>
</linearGradient>
<linearGradient id="paint13_linear" x1="716" y1="29" x2="716" y2="128" gradientUnits="userSpaceOnUse">
<stop stop-color="#1B71FF"/>
<stop offset="1" stop-color="#1B71FF" stop-opacity="0.0987319"/>
</linearGradient>
</defs>
</svg>
