<svg width="301" height="273" viewBox="0 0 301 273" fill="none" xmlns="http://www.w3.org/2000/svg">
<path fill-rule="evenodd" clip-rule="evenodd" d="M151 0C75.8893 0 15 60.8893 15 136C15 211.111 75.8893 272 151 272C226.111 272 287 211.111 287 136C287 60.8893 226.111 0 151 0Z" fill="url(#paint0_linear)"/>
<path d="M199.412 267.729L11.651 177.934C11.0729 177.651 0.188209 172.165 0 164.465C0.00437761 163.254 0.154841 162.048 0.448116 160.873C1.6401 156.235 4.83069 153.451 6.27362 152.342L70.8023 99.8123C72.3014 98.672 73.9631 97.7639 75.7316 97.1184C79.4821 95.7998 83.542 95.6433 87.3826 96.6694L148.774 157.281L293.068 195.444C293.744 195.763 299.261 198.488 300.686 204.873C302.339 212.272 296.944 217.615 296.653 217.893L236.605 267.729C234.787 268.993 232.833 270.047 230.78 270.872C217.26 276.291 203.615 269.907 199.412 267.729Z" fill="#004ECE"/>
<path d="M206.497 260.313L8.48978 165.876C4.60132 164.108 2.46893 160.322 3.11402 156.924C3.674 153.988 6.11101 152.368 6.69786 152.001L70.7589 99.6357C72.9309 98.1526 75.3622 97.0899 77.9266 96.5027C85.7214 94.7393 92.1454 98.0961 94.0538 99.1881L289.821 193.625C295.528 195.93 298.655 200.603 297.884 204.367C297.436 206.502 295.824 207.898 295.197 208.395C289.709 212.768 266.002 232.443 233.375 259.418C231.75 260.724 229.938 261.78 228 262.551C218.292 266.391 208.737 261.521 206.497 260.313Z" fill="#0079BD"/>
<path d="M12.0502 163.946C7.89408 161.964 7.95236 158.95 8.01513 157.685C8.1048 155.77 9.46777 154.25 10.7052 153.212L18.7754 146.504C19.0192 146.264 19.3332 146.107 19.6721 146.057C20.1643 146.004 20.6552 146.167 21.0172 146.504C24.5419 148.463 28.8692 148.291 32.2258 146.057C51.2222 130.516 64.955 119.269 66.7484 117.883C68.3569 116.771 68.7582 114.569 67.6451 112.963C67.2883 112.433 66.8314 111.978 66.3001 111.622C65.5872 111.107 65.0761 110.978 64.5067 110.28C64.2194 110.007 64.0568 109.629 64.0568 109.233C64.0568 108.838 64.2194 108.46 64.5067 108.187L73.4736 100.888C75.6544 99.5116 78.0964 98.5981 80.6471 98.2052C84.1426 97.6882 87.7135 98.1528 90.9591 99.5469L291.818 196.592C292.024 196.664 295.113 197.822 295.853 201.064C296.37 203.407 295.499 205.839 293.611 207.325L232.636 256.071C231.079 257.584 229.255 258.797 227.256 259.649C218.769 263.227 210.3 258.656 208.874 257.86L12.0502 163.946Z" fill="#9DC2FF"/>
<defs>
<linearGradient id="paint0_linear" x1="54.0976" y1="221.338" x2="314.486" y2="377.466" gradientUnits="userSpaceOnUse">
<stop stop-color="#1B71FF" stop-opacity="0.01"/>
<stop offset="1" stop-color="#004AC4"/>
</linearGradient>
</defs>
</svg>
