<svg width="470" height="464" viewBox="0 0 470 464" fill="none" xmlns="http://www.w3.org/2000/svg">
<path fill-rule="evenodd" clip-rule="evenodd" d="M205 447C318.218 447 410 355.218 410 242C410 128.782 318.218 37 205 37C91.7816 37 0 128.782 0 242C0 355.218 91.7816 447 205 447Z" fill="url(#paint0_linear)"/>
<path d="M331.38 341.247L374.077 58.8892C374.401 56.7514 374.433 54.5795 374.173 52.4329L374.099 51.7441C373.848 51.1648 373.532 50.616 373.156 50.1083C372.471 49.1758 371.607 48.3893 370.615 47.7947L368.234 46.3229L233.335 120.683L156.842 398.373C156.716 399.976 157.239 401.563 158.292 402.778C159.345 403.993 160.841 404.735 162.446 404.839L318.392 358.147C320.528 357.404 322.516 356.288 324.263 354.851C330.021 350.081 331.127 343.297 331.38 341.247Z" fill="#004ECE"/>
<path d="M310.555 355.604C312.884 354.906 315.074 353.807 317.025 352.356C322.633 348.159 325.202 341.639 326.413 335.703L370.2 53.9386C370.873 49.8758 369.679 46.7386 367.839 46.1543C367.073 45.9549 366.259 46.0683 365.577 46.4694C286.084 87.4838 228.418 117.283 222.471 120.219C219.83 121.512 217.493 123.351 215.615 125.614C214.113 127.673 212.996 129.987 212.318 132.444C210.65 138.691 187.852 247.844 157.004 396.973C156.749 398.486 157.346 400.017 158.558 400.958C159.769 401.899 161.4 402.099 162.803 401.478C237.357 378.374 297.142 359.766 310.555 355.604Z" fill="#0079BD"/>
<path d="M319.602 331.263L360.914 66.3455L219.042 137.439L167.688 380.871L319.602 331.263Z" fill="#9DC2FF"/>
<defs>
<linearGradient id="paint0_linear" x1="430.906" y1="183.368" x2="169.171" y2="-104.679" gradientUnits="userSpaceOnUse">
<stop stop-color="#1B71FF" stop-opacity="0.01"/>
<stop offset="1" stop-color="#004AC4"/>
</linearGradient>
</defs>
</svg>
